<svg width="381" height="75" viewBox="0 0 381 75" fill="none" xmlns="http://www.w3.org/2000/svg">
<g clip-path="url(#clip0_1488_21587)">
<path d="M24.1092 4.53125V30.625H17.7227V11.2812H6.43328V30.5469H0V4.53125H24.1092ZM56.3693 11.9531C57.1344 13.6719 57.4623 15.5156 57.4623 17.5781C57.4953 19.4218 57.1571 21.2532 56.4676 22.9632C55.7782 24.6732 54.7517 26.2267 53.4493 27.5313C51.6203 29.3317 49.3049 30.5573 46.7884 31.057C44.2718 31.5568 41.6642 31.3088 39.2867 30.3437C38.1079 29.874 37.1453 28.9832 36.5854 27.8437V41.3281H30.2146V4.4375H36.4292V7.14063C36.8664 6.17188 37.8346 5.29688 39.2399 4.64063C42.4706 3.36454 46.0651 3.36454 49.2958 4.64063C50.9199 5.29745 52.3884 6.28752 53.6067 7.547C54.825 8.80649 55.7661 10.3074 56.3693 11.9531ZM50.4825 20.2344C50.7948 19.3594 51.029 18.3906 51.029 17.4219C51.0148 16.4594 50.8297 15.5071 50.4825 14.6094C50.1727 13.7671 49.651 13.0191 48.9679 12.4375C48.3277 11.7969 47.5625 11.3437 46.5944 11.0312C45.4026 10.603 44.1364 10.421 42.8724 10.4962C41.6083 10.5714 40.3726 10.9023 39.2399 11.4688C37.9439 12.1094 37.1943 12.9844 36.7415 13.9687V20.8281C37.1943 21.7969 37.9439 22.6563 39.2399 23.3125C40.3716 23.8734 41.6043 24.2011 42.865 24.2763C44.1257 24.3514 45.3886 24.1725 46.5788 23.75C47.5625 23.4219 48.3277 22.875 48.9679 22.3438C49.6237 21.8438 50.1546 21.0938 50.4825 20.2344V20.2344ZM68.3146 4.53125V20.1719L80.1505 4.54688H86.5838V30.6094H80.2598V14.875L68.4239 30.6094H62.0999V4.54688H68.3146V4.53125ZM118.688 17.5313C118.688 19.4688 118.375 21.3125 117.61 23.0469C116.861 24.7656 115.893 26.1719 114.581 27.375C113.282 28.5857 111.788 29.5683 110.162 30.2812C108.538 30.9375 106.696 31.375 104.853 31.375C103.026 31.375 101.184 31.0469 99.5597 30.2812C97.9 29.6231 96.3913 28.6343 95.1251 27.375C93.8421 26.1445 92.8129 24.674 92.0958 23.0469C91.3562 21.3036 90.9892 19.4249 91.0184 17.5313C90.9885 15.6797 91.3374 13.8416 92.0436 12.1299C92.7498 10.4183 93.7985 8.86925 95.1251 7.57812C96.4276 6.36038 97.9271 5.37242 99.5597 4.65625C101.245 3.9604 103.046 3.58931 104.869 3.5625C106.696 3.5625 108.538 3.89063 110.162 4.65625C111.77 5.29688 113.285 6.28125 114.581 7.57812C115.889 8.82397 116.921 10.3303 117.61 12C118.266 13.7969 118.703 15.625 118.703 17.5313H118.688ZM98.1544 14.7656C97.8071 15.6633 97.6221 16.6156 97.6078 17.5781C97.6078 18.5469 97.8264 19.5313 98.1544 20.3906C98.4666 21.25 99.0132 22.0156 99.669 22.5469C100.325 23.2031 101.074 23.6406 102.042 23.9531C103.373 24.4927 104.828 24.647 106.242 24.3984C107.655 24.1497 108.971 23.5081 110.037 22.5469C110.693 21.9063 111.24 21.25 111.661 20.3906C112.374 18.5835 112.374 16.5727 111.661 14.7656C111.313 13.9237 110.76 13.1824 110.053 12.6094C109.397 11.9531 108.647 11.5156 107.773 11.2031C106.876 10.8557 105.924 10.6705 104.962 10.6562C103.994 10.6562 103.026 10.875 102.042 11.2031C101.184 11.5156 100.325 12.0625 99.669 12.6094C99.0756 13.1406 98.5291 13.9063 98.1544 14.7656V14.7656ZM149.23 11.9531C149.995 13.6719 150.323 15.5156 150.323 17.5781C150.356 19.4218 150.018 21.2532 149.329 22.9632C148.639 24.6732 147.613 26.2267 146.31 27.5313C144.481 29.3317 142.166 30.5573 139.649 31.057C137.133 31.5568 134.525 31.3088 132.148 30.3437C130.969 29.874 130.006 28.9832 129.446 27.8437V41.3281H123.013V4.4375H129.228V7.14063C129.665 6.17188 130.633 5.29688 132.038 4.64063C135.269 3.36454 138.864 3.36454 142.094 4.64063C143.676 5.28126 145.111 6.23829 146.31 7.45313C147.497 8.70313 148.481 10.2187 149.23 11.9531ZM143.234 20.2344C143.546 19.3594 143.781 18.3906 143.781 17.4219C143.766 16.4594 143.581 15.5071 143.234 14.6094C142.924 13.7675 142.402 13.0196 141.72 12.4375C141.064 11.7969 140.314 11.3437 139.346 11.0312C138.154 10.603 136.888 10.421 135.624 10.4962C134.36 10.5714 133.124 10.9023 131.992 11.4688C130.695 12.1094 129.93 12.9844 129.493 13.9687V20.8281C129.93 21.7969 130.695 22.6563 131.992 23.3125C133.123 23.8734 134.356 24.2011 135.617 24.2763C136.877 24.3514 138.14 24.1725 139.33 23.75C140.314 23.4219 141.064 22.875 141.72 22.3438C142.375 21.8438 142.906 21.0938 143.234 20.2344V20.2344ZM161.176 4.53125V20.1719L172.902 4.54688H179.335V30.6094H173.011V14.875L161.3 30.6094H154.852V4.54688H161.176V4.53125ZM206.146 11.2969H198.089V30.5625H191.656V11.2969H183.723V4.42187H206.208V11.2969H206.146ZM223.182 24.7656C224.79 24.7656 226.305 24.4531 227.819 23.9063C229.334 23.3594 230.411 22.5 231.176 21.5312L233.113 26.5C232.254 27.9062 230.958 29 229.225 29.8594C227.507 30.7187 225.321 31.2656 222.901 31.2656C221.018 31.2831 219.149 30.9493 217.389 30.2812C215.733 29.7043 214.221 28.7778 212.955 27.5646C211.688 26.3514 210.698 24.88 210.05 23.25C209.286 21.4423 208.914 19.4933 208.957 17.5313C208.927 13.9352 210.242 10.4578 212.642 7.78125C213.88 6.4467 215.388 5.39035 217.065 4.68197C218.742 3.97359 220.55 3.62931 222.37 3.67187C224.13 3.66822 225.87 4.04299 227.473 4.77084C229.076 5.49869 230.504 6.56262 231.661 7.89063C232.773 9.20954 233.65 10.7107 234.253 12.3281C234.908 13.9531 235.111 15.6875 235.111 17.5313V18.7187C235.111 19.1406 235.018 19.4688 235.018 19.7969H215.655C215.767 20.5725 216.049 21.3138 216.481 21.9675C216.913 22.6213 217.484 23.1713 218.154 23.5781C219.702 24.3947 221.432 24.8034 223.182 24.7656V24.7656ZM228.522 14.5469C228.303 13.1406 227.663 12.0469 226.476 11.4219C225.29 10.6406 223.978 10.3281 222.37 10.3281C220.888 10.2763 219.424 10.6563 218.154 11.4219C217.561 11.7349 217.048 12.179 216.653 12.7206C216.258 13.2621 215.991 13.8868 215.874 14.5469H228.522ZM260.454 11.2969H252.413V30.5625H245.979V11.2969H238.031V4.42187H260.517V11.2969H260.47H260.454Z" fill="#202D62"/>
<path d="M272.946 9.79687C272.306 9.79687 271.759 9.89062 271.228 10.1094C270.682 10.3281 270.245 10.5469 269.714 10.875C269.276 11.1875 268.839 11.5156 268.527 11.9531L267.543 13.25L265.279 9.25C265.663 7.6573 266.626 6.26477 267.98 5.34375C268.636 4.8125 269.495 4.48438 270.354 4.17188C271.293 3.85208 272.282 3.70389 273.274 3.73438C274.679 3.73438 275.866 3.95312 276.85 4.375C277.927 4.8125 278.786 5.35938 279.442 6.10938C280.882 7.66536 281.655 9.72388 281.596 11.8437C281.611 13.5559 281.164 15.2403 280.3 16.7187C279.879 17.4687 279.332 18.2344 278.677 18.9844C278.036 19.7344 277.271 20.6094 276.522 21.5781L273.93 24.5H282.143V30.3906H265.326V25.75L272.743 17.6875C273.274 17.1406 273.711 16.5938 274.148 16.1719C274.57 15.7344 274.898 15.3125 275.116 14.875C275.335 14.4375 275.554 14.1094 275.663 13.6875C275.757 13.3594 275.866 12.9219 275.866 12.3906C275.866 11.625 275.554 10.9844 275.007 10.4375C274.695 10.125 273.914 9.79687 272.962 9.79687H272.946ZM293.432 4.875C295.124 4.21477 296.926 3.88077 298.741 3.89063C300.568 3.89063 302.411 4.21875 304.035 4.875C305.686 5.51394 307.194 6.47203 308.475 7.69455C309.756 8.91708 310.783 10.3801 311.499 12C312.248 13.7344 312.576 15.5781 312.576 17.5313C312.576 19.5781 312.248 21.4219 311.483 23.0469C310.403 25.5109 308.614 27.5976 306.345 29.0417C304.077 30.4857 301.43 31.2218 298.741 31.1563C296.899 31.1563 295.056 30.8281 293.432 30.1719C291.784 29.5327 290.277 28.5744 288.999 27.3518C287.721 26.1291 286.697 24.6663 285.984 23.0469C285.24 21.3047 284.867 19.4259 284.891 17.5313C284.891 15.4688 285.219 13.625 285.984 12C286.676 10.3634 287.709 8.89319 289.013 7.6875C290.274 6.4514 291.779 5.49332 293.432 4.875V4.875ZM298.679 25.2031C300.226 25.2414 301.751 24.8348 303.074 24.0317C304.397 23.2285 305.462 22.0625 306.143 20.6719C306.692 19.4598 306.919 18.1268 306.804 16.8012C306.689 15.4756 306.234 14.202 305.484 13.1032C304.734 12.0043 303.714 11.1171 302.522 10.5271C301.331 9.93707 300.007 9.66407 298.679 9.73438C297.612 9.69002 296.546 9.85773 295.543 10.2278C294.541 10.5979 293.622 11.1631 292.839 11.8906C292.09 12.5469 291.543 13.4063 291.121 14.3906C290.678 15.372 290.454 16.4386 290.466 17.5156C290.451 18.5526 290.655 19.581 291.064 20.534C291.473 21.487 292.078 22.3432 292.839 23.0469C293.604 23.6875 294.463 24.2344 295.447 24.6562C296.415 24.9844 297.492 25.2031 298.679 25.2031ZM321.492 25.2031C322.679 25.2031 323.647 24.8906 324.303 24.3437C325.052 23.7969 325.396 23.0469 325.396 22.0625C325.396 21.2031 325.052 20.5469 324.412 20.0156C323.756 19.4688 322.898 19.25 321.82 19.25C321.055 19.25 320.415 19.3594 319.868 19.4688C319.322 19.6875 318.9 19.7813 318.682 20.0156L317.807 15.9063L322.351 10.2812H315.168V4.4375H329.815V8.75L325.38 14.2188C326.036 14.3125 326.676 14.6406 327.332 14.9687C328.888 15.8202 330.081 17.2085 330.689 18.875C331.42 21.1264 331.376 23.5578 330.564 25.7812C330.12 26.894 329.449 27.902 328.594 28.7412C327.739 29.5805 326.719 30.2326 325.599 30.6563C323.392 31.5078 320.976 31.6551 318.682 31.0781C317.871 30.8891 317.1 30.5614 316.402 30.1094C315.825 29.7303 315.286 29.2959 314.793 28.8125C314.39 28.3605 314.058 27.8494 313.81 27.2969L315.121 22.4375C315.855 23.2997 316.732 24.0291 317.713 24.5937C318.572 24.8594 319.978 25.1875 321.492 25.1875V25.2031ZM342.135 4.875C343.827 4.21477 345.628 3.88077 347.444 3.89063C349.271 3.89063 351.113 4.21875 352.737 4.875C356.065 6.16887 358.744 8.73143 360.186 12C360.951 13.7344 361.279 15.5781 361.279 17.5313C361.279 19.5781 360.951 21.4219 360.186 23.0469C359.104 25.5134 357.313 27.6018 355.041 29.0461C352.769 30.4903 350.119 31.2249 347.428 31.1563C345.601 31.1563 343.759 30.8281 342.135 30.1719C340.484 29.5329 338.975 28.5748 337.695 27.3523C336.414 26.1298 335.387 24.6668 334.671 23.0469C333.931 21.3038 333.564 19.4249 333.594 17.5313C333.594 15.4688 333.922 13.625 334.687 12C335.374 10.3648 336.401 8.89473 337.7 7.6875C339.002 6.49625 340.503 5.54414 342.135 4.875V4.875ZM347.444 25.2031C348.991 25.2433 350.517 24.8375 351.841 24.0342C353.164 23.2308 354.229 22.0637 354.908 20.6719C355.329 19.6875 355.532 18.7188 355.532 17.5313C355.538 16.4817 355.331 15.4419 354.923 14.475C354.515 13.5081 353.915 12.6342 353.159 11.9062C352.379 11.241 351.505 10.6935 350.567 10.2812C349.575 9.88366 348.512 9.69741 347.444 9.73438C346.376 9.68915 345.31 9.85646 344.308 10.2266C343.305 10.5967 342.386 11.1624 341.604 11.8906C340.839 12.5469 340.292 13.4063 339.871 14.3906C339.427 15.372 339.203 16.4386 339.215 17.5156C339.203 18.5538 339.409 19.5829 339.821 20.536C340.232 21.489 340.84 22.3445 341.604 23.0469C342.353 23.6875 343.212 24.2344 344.196 24.6562C345.273 24.9844 346.351 25.2031 347.428 25.2031H347.444ZM375.113 0H369.804L363.824 10.4375H369.133L375.098 0H375.113Z" fill="#F32735"/>
<path d="M369.82 0H375.113L381 10.4375H375.816L369.82 0Z" fill="#F32735"/>
<path d="M21.1268 59.5469H19.5653L14.5373 71.0156L14.428 71.2344H16.1613L17.348 68.4219H23.2816L24.4839 71.2344H26.2016L21.1268 59.5469V59.5469ZM22.6882 67.0625H17.957L20.346 61.5469L22.7195 67.0625H22.6882ZM10.9303 69.6094H12.5386V74.2031H11.024V71.0781H1.49902V74.2031H0V69.6094H1.40533C2.21729 68.5781 2.59205 67.1094 2.59205 65.2344V59.5H10.9303V69.6094ZM3.29471 69.6094H9.40008V60.9375H4.16914V65.2188C4.16914 67 3.84123 68.4531 3.29471 69.5938V69.6094ZM38.7558 59.4375V71.0625H37.2412V60.9062H31.9946V66.0937C31.9946 68.0469 31.6199 69.3906 30.8704 70.0937C30.1677 70.7969 29.1371 71.125 27.8411 71.0625V69.6094C28.6999 69.7187 29.3557 69.5 29.7773 68.9531C30.2145 68.4844 30.4332 67.5 30.4332 66.0937V59.4375H38.7558ZM46.6881 63.875C47.7811 63.875 48.7024 64.1875 49.4519 64.9063C50.217 65.5469 50.5918 66.4219 50.5918 67.5C50.5918 68.5938 50.217 69.4531 49.4519 70.0937C48.7024 70.75 47.7811 71.0625 46.7037 71.0625H42.0037V59.4375H43.5027V63.875H46.7037H46.6881ZM46.6881 69.6094C47.3439 69.6094 47.8904 69.3906 48.3745 69.0156C48.8586 68.6406 49.0772 68.0938 49.0772 67.5C49.0772 66.8438 48.8586 66.3594 48.3745 65.9844C47.9119 65.5835 47.3154 65.3715 46.7037 65.3906H43.5027V69.6094H46.7037H46.6881ZM61.1318 59.4375H62.6464V71.0625H61.1318V65.9844H54.4174V71.0625H52.9184V59.4375H54.433V64.5312H61.1318V59.4375ZM74.3731 59.4375H75.6691V71.0625H74.1545V62.0938L67.2371 71.0625H65.9411V59.4375H67.4557V68.4219L74.3731 59.4375ZM80.8064 57.5938V56.25H86.8649V57.5938H80.8064ZM87.3958 59.4375H88.6918V71.0625H87.1772V62.0938L80.2598 71.0625H78.917V59.4375H80.4316V68.4219L87.3958 59.4375ZM105.181 65.125C106.477 65.5937 107.07 66.4687 107.07 67.8281C107.07 68.75 106.758 69.5469 106.102 70.1563C105.509 70.75 104.588 71.0625 103.401 71.0625H97.7171V59.4375H102.917C104.041 59.4375 104.916 59.7031 105.571 60.3125C106.149 60.9062 106.477 61.6094 106.477 62.5156C106.539 63.7656 106.04 64.5781 105.181 65.125V65.125ZM102.964 60.9375H99.3098V64.4531H102.979C104.338 64.4531 104.978 63.8594 104.978 62.6094C104.978 62.0781 104.822 61.6406 104.447 61.3594C104.119 61.0938 103.635 60.9375 102.979 60.9375H102.964ZM103.401 69.5938C104.104 69.5938 104.588 69.4375 104.962 69.1094C105.337 68.7812 105.509 68.3438 105.509 67.75C105.509 67.2188 105.353 66.7812 104.962 66.4531C104.588 66.1406 104.104 65.9688 103.401 65.9688H99.2942V69.5938H103.401ZM119.141 69.6094C118.576 70.1823 117.899 70.6311 117.151 70.927C116.404 71.223 115.603 71.3596 114.8 71.3281C114 71.3406 113.207 71.1931 112.465 70.8943C111.724 70.5954 111.05 70.1512 110.482 69.5878C109.915 69.0245 109.466 68.3532 109.161 67.6137C108.857 66.8741 108.704 66.0811 108.71 65.2812C108.694 63.5625 109.288 62.0937 110.474 60.9531C111.037 60.3777 111.71 59.923 112.454 59.6168C113.197 59.3105 113.996 59.1591 114.8 59.1719C116.486 59.1719 117.938 59.7656 119.125 60.9531C119.704 61.5123 120.162 62.1856 120.468 62.9305C120.775 63.6755 120.923 64.4759 120.905 65.2812C120.905 67 120.312 68.4687 119.125 69.6094H119.141ZM111.567 68.5781C112.426 69.4531 113.504 69.9375 114.8 69.9375C116.096 69.9375 117.189 69.5 118.048 68.5781C118.906 67.6562 119.39 66.5781 119.39 65.2812C119.39 63.9844 118.969 62.9063 118.048 62.0313C117.633 61.5883 117.129 61.2392 116.569 61.0074C116.009 60.7757 115.406 60.6666 114.8 60.6875C113.504 60.6875 112.426 61.1094 111.567 62.0313C110.706 62.9029 110.223 64.0791 110.223 65.3047C110.223 66.5303 110.706 67.7065 111.567 68.5781ZM128.915 71.4063C127.182 71.4063 125.714 70.7969 124.543 69.6563C123.972 69.0927 123.522 68.4179 123.221 67.6735C122.92 66.9291 122.775 66.1309 122.794 65.3281C122.794 63.6094 123.403 62.1406 124.528 61.0156C125.092 60.4293 125.772 59.9668 126.525 59.6575C127.278 59.3482 128.086 59.1988 128.9 59.2188C130.04 59.2188 131.086 59.5 131.992 60.0312C132.913 60.5781 133.553 61.3281 133.99 62.25L132.741 62.9531C132.429 62.25 131.929 61.7031 131.226 61.2813C130.534 60.8477 129.732 60.6202 128.915 60.625C127.619 60.625 126.526 61.0625 125.668 61.9844C125.232 62.4052 124.887 62.9104 124.653 63.4692C124.42 64.0281 124.303 64.6287 124.309 65.2344C124.309 66.5312 124.746 67.6094 125.668 68.5156C126.526 69.3906 127.619 69.875 128.915 69.875C129.718 69.8969 130.512 69.6971 131.209 69.2974C131.906 68.8978 132.479 68.3137 132.866 67.6094L134.146 68.3594C133.666 69.2822 132.935 70.0511 132.038 70.5781C131.07 71.125 130.04 71.3906 128.915 71.3906V71.4063ZM144.483 59.4375V60.9531H140.361V71.1094H138.862V60.9531H134.74V59.4375H144.483ZM155.617 69.6094C155.054 70.1803 154.379 70.6279 153.635 70.9238C152.89 71.2197 152.092 71.3574 151.291 71.3281C150.491 71.3428 149.695 71.1968 148.952 70.8989C148.209 70.601 147.533 70.1571 146.964 69.5935C146.395 69.0299 145.944 68.358 145.639 67.6174C145.334 66.8767 145.18 66.0824 145.186 65.2812C145.186 63.5625 145.779 62.0937 146.966 60.9531C147.528 60.3777 148.202 59.923 148.945 59.6168C149.689 59.3105 150.487 59.1591 151.291 59.1719C152.962 59.1719 154.414 59.7656 155.617 60.9531C156.196 61.5123 156.654 62.1856 156.96 62.9305C157.266 63.6755 157.415 64.4759 157.397 65.2812C157.397 67 156.803 68.4687 155.617 69.6094V69.6094ZM148.043 68.5781C148.902 69.4531 149.995 69.9375 151.291 69.9375C152.587 69.9375 153.665 69.5 154.524 68.5781C155.398 67.6562 155.882 66.5781 155.882 65.2812C155.882 63.9844 155.445 62.9063 154.524 62.0313C154.111 61.5903 153.61 61.2424 153.052 61.0107C152.495 60.779 151.895 60.6688 151.291 60.6875C149.995 60.6875 148.902 61.1094 148.043 62.0313C147.608 62.452 147.263 62.9573 147.029 63.5161C146.796 64.0749 146.679 64.6756 146.685 65.2812C146.747 66.5781 147.185 67.6562 148.043 68.5781ZM169.389 71.0625H167.343L161.503 65.4375V71.0625H159.989V59.4375H161.503V64.5781L167.015 59.4375H169.123L163.127 65.0156L169.389 71.0625Z" fill="#202D62"/>
</g>
<defs>
<clipPath id="clip0_1488_21587">
<rect width="381" height="75" fill="white"/>
</clipPath>
</defs>
</svg>
