<svg width="324" height="126" viewBox="0 0 324 126" fill="none" xmlns="http://www.w3.org/2000/svg">
<path d="M170.488 39.9014C171.252 41.1316 172.346 42.1257 173.646 42.7727C174.979 43.4426 176.454 43.7823 177.947 43.7628C179.178 43.7855 180.404 43.6099 181.578 43.243C182.577 42.9086 183.523 42.4335 184.387 41.8321C185.17 41.2871 185.902 40.6742 186.576 40.0004V47.4262C185.43 48.3335 184.145 49.0522 182.771 49.5549C181.092 50.126 179.324 50.3942 177.549 50.347C175.373 50.375 173.208 50.0145 171.159 49.2826C169.304 48.6163 167.61 47.5708 166.186 46.2133C164.783 44.8596 163.675 43.2336 162.929 41.436C161.403 37.5102 161.403 33.1588 162.929 29.2329C163.675 27.4429 164.784 25.8251 166.186 24.4804C167.602 23.1069 169.298 22.0518 171.159 21.3863C173.211 20.6665 175.374 20.3064 177.549 20.322C179.324 20.2747 181.092 20.543 182.771 21.114C184.141 21.6267 185.424 22.3446 186.576 23.2428V30.6686C185.896 29.9936 185.165 29.3729 184.387 28.8121C183.527 28.2343 182.578 27.7996 181.578 27.525C180.404 27.158 179.178 26.9825 177.947 27.0052C176.454 26.9857 174.979 27.3254 173.646 27.9953C172.346 28.6422 171.252 29.6364 170.488 30.8666C169.658 32.2387 169.243 33.8202 169.294 35.4211C169.266 36.996 169.679 38.5476 170.488 39.9014Z" fill="#483F97"/>
<path d="M191.772 29.2824C192.534 27.485 193.658 25.8617 195.073 24.5123C196.488 23.1629 198.166 22.116 200.003 21.4358C203.967 19.983 208.322 19.983 212.286 21.4358C214.139 22.1172 215.832 23.1703 217.259 24.5299C218.669 25.8679 219.779 27.4875 220.517 29.2824C221.311 31.214 221.708 33.2845 221.685 35.3716C221.699 37.4555 221.311 39.5227 220.541 41.4607C219.833 43.3165 218.74 45.0032 217.334 46.4113C215.91 47.7931 214.218 48.8712 212.361 49.5796C208.355 51.0848 203.934 51.0848 199.928 49.5796C198.071 48.8712 196.379 47.7931 194.955 46.4113C193.541 45.0099 192.447 43.3213 191.748 41.4607C190.966 39.5261 190.577 37.4565 190.604 35.3716C190.581 33.2845 190.978 31.214 191.772 29.2824V29.2824ZM198.983 39.9013C199.618 41.1638 200.602 42.2199 201.818 42.9459C203.128 43.7097 204.626 44.0954 206.145 44.0598C207.639 44.0921 209.112 43.7061 210.396 42.9459C211.613 42.2199 212.596 41.1638 213.231 39.9013C213.929 38.5116 214.279 36.9745 214.251 35.4211C214.287 33.8617 213.945 32.3166 213.256 30.9161C212.634 29.6602 211.669 28.6047 210.471 27.8715C209.147 27.1411 207.658 26.758 206.145 26.758C204.631 26.758 203.142 27.1411 201.818 27.8715C200.608 28.6048 199.626 29.659 198.983 30.9161C198.294 32.3166 197.953 33.8617 197.989 35.4211C197.953 36.9725 198.294 38.5095 198.983 39.9013Z" fill="#483F97"/>
<path d="M245.431 43.5154V21.0151H252.518V43.5154H257.043V55.2481H250.379V49.8025H226.061V21.0151H233.148V43.5154H245.431Z" fill="#483F97"/>
<path d="M261.469 51.1393L261.668 42.5006L288.075 19.5796L287.876 28.2183L261.469 51.1393ZM268.133 44.3323L261.469 51.1393V21.0152H268.133V44.3323ZM288.025 49.7036H281.312V26.6341L288.025 19.5796V49.7036Z" fill="#483F97"/>
<path d="M293.695 29.2824C294.441 27.4863 295.56 25.867 296.977 24.5299C298.402 23.1675 300.095 22.114 301.95 21.4358C305.914 19.983 310.269 19.983 314.233 21.4358C316.086 22.1172 317.779 23.1703 319.206 24.5299C320.608 25.8745 321.717 27.4923 322.464 29.2824C323.249 31.2157 323.638 33.2862 323.607 35.3716C323.63 37.4539 323.25 39.5212 322.489 41.4607C321.767 43.286 320.671 44.9417 319.271 46.3225C317.871 47.7032 316.198 48.7787 314.358 49.4806C310.351 50.9858 305.931 50.9858 301.925 49.4806C300.062 48.7844 298.368 47.7048 296.952 46.3123C295.538 44.9056 294.437 43.219 293.72 41.3617C292.958 39.4222 292.578 37.3549 292.601 35.2725C292.567 33.2237 292.939 31.1883 293.695 29.2824V29.2824ZM300.906 39.8518C301.541 41.1143 302.524 42.1704 303.74 42.8964C305.042 43.6594 306.532 44.0452 308.042 44.0103C309.544 44.0459 311.026 43.6599 312.319 42.8964C313.528 42.1838 314.511 41.1456 315.153 39.9013C315.851 38.5116 316.201 36.9745 316.173 35.4211C316.209 33.8617 315.868 32.3166 315.178 30.9161C314.55 29.6569 313.576 28.6011 312.368 27.8715C311.062 27.0989 309.561 26.7126 308.042 26.7576C306.532 26.7226 305.042 27.1084 303.74 27.8715C302.53 28.6048 301.548 29.659 300.906 30.9161C300.208 32.3148 299.859 33.8598 299.886 35.4211C299.858 36.9745 300.208 38.5116 300.906 39.9013V39.8518Z" fill="#483F97"/>
<path d="M182.746 92.7236V70.2234H189.808V92.7236H194.358V104.456H187.67V98.9366H163.376V70.2234H170.463V92.7236H182.746Z" fill="#483F97"/>
<path d="M205.424 70.2234V98.9366H198.76V70.2234H205.424ZM203.385 70.2234H217.906V75.9165H203.385V70.2234ZM203.385 81.0403H216.986V86.6344H203.385V81.0403ZM203.385 93.2187H217.906V98.9366H203.385V93.2187Z" fill="#483F97"/>
<path d="M230.562 70.2234V98.9366H223.6V70.2234H230.562ZM225.589 80.669H247.42V86.9315H225.589V80.669ZM249.981 70.2234V98.9366H243.019V70.2234H249.981Z" fill="#483F97"/>
<path d="M253.09 70.2234H275.916V76.4116H267.959V98.9366H260.997V76.4116H253.09V70.2234Z" fill="#483F97"/>
<path d="M286.061 70.2235V98.9366H279.148V70.2235H286.061ZM283.574 70.2235H289.094C291.206 70.1559 293.308 70.5356 295.261 71.3373C296.815 72.0111 298.131 73.1316 299.04 74.5552C299.901 76.0625 300.339 77.7723 300.308 79.5057C300.345 81.2399 299.907 82.9513 299.04 84.4563C298.138 85.886 296.82 87.0083 295.261 87.6742C293.312 88.494 291.208 88.8825 289.094 88.8128H283.45V83.1196H289.094C290.272 83.1869 291.437 82.8554 292.401 82.179C292.801 81.8501 293.117 81.4322 293.324 80.9593C293.531 80.4863 293.624 79.9715 293.595 79.4563C293.624 78.9374 293.532 78.4189 293.324 77.942C293.117 77.465 292.801 77.0428 292.401 76.7087C291.437 76.0324 290.272 75.7008 289.094 75.7681H283.45L283.574 70.2235Z" fill="#483F97"/>
<path d="M137.193 55.7431C137.367 64.8192 135.721 73.8387 132.352 82.2742C128.983 90.7097 123.958 98.3919 117.572 104.872C111.186 111.351 103.566 116.499 95.1574 120.012C86.7493 123.526 77.7219 125.336 68.6029 125.336C59.4839 125.336 50.4565 123.526 42.0483 120.012C33.6402 116.499 26.0202 111.351 19.6338 104.872C13.2473 98.3919 8.22272 90.7097 4.85369 82.2742C1.48466 73.8387 -0.161167 64.8192 0.0124335 55.7431C0.0124335 54.5302 0.0124335 53.2678 0.0124335 52.154C0.618392 58.257 2.12658 64.2374 4.48816 69.9017C7.54329 77.3275 12.1063 84.045 17.8911 89.6333C23.6759 95.2216 30.5579 99.5602 38.1058 102.377C46.1968 105.432 54.7907 106.951 63.4434 106.858C72.5811 107.048 81.6511 105.258 90.0242 101.61C97.4553 98.3319 104.075 93.4739 109.419 87.3771L89.5269 68.7383C86.8585 72.3824 83.3662 75.3502 79.3322 77.4018C74.7085 79.7109 69.5844 80.8501 64.4131 80.7186C59.7696 80.7669 55.1657 79.8654 50.8865 78.0701C46.8581 76.3599 43.2332 73.8306 40.2442 70.6443C37.1893 67.3401 34.8304 63.46 33.3068 59.2333C31.5982 54.5377 30.7558 49.5734 30.8203 44.5796C30.7642 39.6753 31.6068 34.8018 33.3068 30.1983C34.9112 25.9657 37.3359 22.0885 40.4431 18.7873C43.4712 15.5531 47.1363 12.9747 51.2097 11.213C55.5752 9.3475 60.2844 8.41161 65.0347 8.46543C69.6165 8.47313 74.1525 9.37287 78.3873 11.114C82.6075 12.7883 86.2635 15.6209 88.9301 19.2824L108.3 0C117.246 6.31137 124.539 14.6682 129.567 24.3682C134.595 34.0682 137.21 44.828 137.193 55.7431V55.7431Z" fill="#483F97"/>
</svg>
