<svg width="175" height="50" viewBox="0 0 175 50" fill="none" xmlns="http://www.w3.org/2000/svg">
<g clip-path="url(#clip0_4961_114783)">
<path d="M76.2967 11.0951H73.9912V0H83.2852V11.0951H81.0517V2.01729H76.2967V11.0951Z" fill="#363636"/>
<path d="M89.4817 11.3113C88.2569 11.3113 87.1763 10.951 86.3837 10.1585C85.5192 9.36602 85.0869 8.35738 85.0869 7.13259C85.0869 5.97986 85.4471 4.97121 86.2397 4.1787C87.0322 3.3862 87.9688 2.95392 89.1936 2.95392C90.3463 2.95392 91.2829 3.3862 91.9313 4.1787C92.6518 4.97121 92.9399 5.97986 92.9399 7.13259V7.70896H87.2483C87.3924 8.21328 87.6806 8.64556 88.1129 8.93375C88.6172 9.22193 89.1936 9.36602 89.914 9.36602C90.7786 9.36602 91.6431 9.14988 92.4356 8.64556V10.4467C91.7872 11.0231 90.7786 11.3113 89.4817 11.3113ZM87.3203 6.34009H90.7786C90.7786 5.90781 90.5624 5.47553 90.2742 5.18735C89.9861 4.89916 89.5538 4.75507 89.1215 4.75507C88.6172 4.75507 88.1849 4.89916 87.8967 5.18735C87.5365 5.47553 87.3924 5.83576 87.3203 6.34009Z" fill="#363636"/>
<path d="M99.496 2.95392C100.577 2.95392 101.441 3.3862 102.162 4.1787C102.882 4.97121 103.242 5.97986 103.242 7.13259C103.242 8.28533 102.882 9.29398 102.162 10.0865C101.441 10.879 100.577 11.3113 99.496 11.3113C98.4154 11.3113 97.5508 10.951 96.9024 10.1585V14.2652H94.6689V3.17006H96.9024V4.10666C97.5508 3.3862 98.4154 2.95392 99.496 2.95392ZM98.9197 4.89916C98.4874 4.89916 98.1272 5.04326 97.7669 5.25939C97.4067 5.47553 97.1185 5.76372 96.9744 6.12395V8.21328C97.1906 8.57351 97.4067 8.8617 97.7669 9.07784C98.1272 9.29398 98.4874 9.36602 98.9197 9.36602C99.5681 9.36602 100.072 9.14988 100.433 8.71761C100.865 8.28533 101.009 7.78101 101.009 7.13259C101.009 6.48418 100.793 5.97986 100.433 5.54758C100.072 5.1153 99.496 4.89916 98.9197 4.89916Z" fill="#363636"/>
<path d="M108.789 11.3113C107.565 11.3113 106.484 10.951 105.691 10.1585C104.827 9.36602 104.395 8.35738 104.395 7.13259C104.395 5.97986 104.755 4.97121 105.547 4.1787C106.34 3.3862 107.276 2.95392 108.501 2.95392C109.654 2.95392 110.59 3.3862 111.239 4.1787C111.959 4.97121 112.248 5.97986 112.248 7.13259V7.70896H106.556C106.7 8.21328 106.988 8.64556 107.42 8.93375C107.925 9.22193 108.501 9.36602 109.222 9.36602C110.086 9.36602 110.951 9.14988 111.743 8.64556V10.4467C111.095 11.0231 110.086 11.3113 108.789 11.3113ZM106.556 6.34009H110.014C110.014 5.90781 109.798 5.47553 109.51 5.18735C109.222 4.89916 108.789 4.75507 108.357 4.75507C107.853 4.75507 107.42 4.89916 107.132 5.18735C106.844 5.47553 106.628 5.83576 106.556 6.34009Z" fill="#363636"/>
<path d="M115.346 13.1124H113.185V9.22189H114.193C114.77 8.28529 115.13 6.77232 115.13 4.75503V3.24207H121.758V9.29394H123.055V13.1844H121.038V11.1671H115.346V13.1124ZM116.499 9.22189H119.669V5.04322H117.219C117.219 6.70028 116.931 8.06915 116.499 9.22189Z" fill="#363636"/>
<path d="M126.369 7.13259C126.369 7.78101 126.585 8.28533 127.018 8.71761C127.45 9.14988 127.954 9.36602 128.603 9.36602C129.251 9.36602 129.755 9.14988 130.188 8.71761C130.62 8.28533 130.836 7.78101 130.836 7.13259C130.836 6.48418 130.62 5.97986 130.188 5.54758C129.755 5.1153 129.251 4.89916 128.603 4.89916C127.954 4.89916 127.45 5.1153 127.018 5.54758C126.585 5.97986 126.369 6.48418 126.369 7.13259ZM124.136 7.13259C124.136 5.97986 124.568 4.97121 125.361 4.1787C126.153 3.3862 127.234 2.95392 128.531 2.95392C129.827 2.95392 130.836 3.3862 131.701 4.1787C132.493 4.97121 132.925 5.97986 132.925 7.13259C132.925 8.28533 132.493 9.29398 131.701 10.0865C130.908 10.879 129.827 11.3113 128.531 11.3113C127.234 11.3113 126.225 10.879 125.361 10.0865C124.568 9.29398 124.136 8.28533 124.136 7.13259Z" fill="#363636"/>
<path d="M139.265 11.0951H134.582V3.17004H139.049C139.841 3.17004 140.49 3.38618 140.922 3.74641C141.354 4.10664 141.571 4.61097 141.571 5.18733C141.571 5.97984 141.282 6.55621 140.634 6.8444C141.643 7.20463 142.147 7.85304 142.147 8.86169C142.147 9.5101 141.859 10.0865 141.354 10.4467C140.85 10.879 140.202 11.0951 139.265 11.0951ZM136.815 7.78099V9.58215H138.689C139.481 9.58215 139.841 9.29396 139.841 8.71759C139.841 8.14123 139.481 7.85304 138.689 7.85304H136.815V7.78099ZM136.815 4.75506V6.34007H138.4C139.121 6.34007 139.481 6.05189 139.481 5.54757C139.481 5.04324 139.049 4.75506 138.328 4.75506H136.815Z" fill="#363636"/>
<path d="M154.107 11.0951H151.873V3.17004H154.107V11.0951ZM147.839 11.0951H143.876V3.17004H146.109V5.47552H147.694C148.703 5.47552 149.496 5.7637 150.072 6.26803C150.648 6.77235 150.936 7.42076 150.936 8.28532C150.936 9.07782 150.648 9.72624 150.144 10.3026C149.568 10.8069 148.847 11.0951 147.839 11.0951ZM146.109 7.13258V9.36601H147.406C147.839 9.36601 148.199 9.29396 148.415 9.07783C148.631 8.86169 148.775 8.64555 148.775 8.28532C148.775 7.92509 148.631 7.6369 148.415 7.49281C148.199 7.27667 147.839 7.20463 147.406 7.20463H146.109V7.13258Z" fill="#363636"/>
<path d="M160.231 11.3113C159.006 11.3113 157.925 10.951 157.133 10.1585C156.268 9.36602 155.836 8.35738 155.836 7.13259C155.836 5.97986 156.196 4.97121 156.989 4.1787C157.781 3.3862 158.718 2.95392 159.943 2.95392C161.095 2.95392 162.032 3.3862 162.68 4.1787C163.401 4.97121 163.689 5.97986 163.689 7.13259V7.70896H157.997C158.141 8.21328 158.43 8.64556 158.862 8.93375C159.366 9.22193 159.943 9.36602 160.663 9.36602C161.528 9.36602 162.392 9.14988 163.185 8.64556V10.4467C162.536 11.0231 161.528 11.3113 160.231 11.3113ZM157.997 6.34009H161.456C161.456 5.90781 161.239 5.47553 160.951 5.18735C160.663 4.89916 160.231 4.75507 159.798 4.75507C159.294 4.75507 158.862 4.89916 158.574 5.18735C158.286 5.47553 158.069 5.83576 157.997 6.34009Z" fill="#363636"/>
<path d="M75.937 29.8271H73.8477V21.902H76.0811V26.585L79.6834 21.902H81.7727V29.8271H79.5393V25.1441L75.937 29.8271Z" fill="#363636"/>
<path d="M86.167 29.8271H83.9336V21.902H86.167V24.8559H89.4091V21.902H91.6425V29.8271H89.4091V26.7291H86.167V29.8271Z" fill="#363636"/>
<path d="M95.6052 29.8271H92.9395L96.3256 25.5764L93.2997 21.902H95.8213L98.1988 24.8559V21.902H100.432V24.8559L102.81 21.902H105.331L102.305 25.5764L105.764 29.8271H103.026L100.432 26.4409V29.8271H98.1988V26.4409L95.6052 29.8271Z" fill="#363636"/>
<path d="M110.231 30.0432C109.006 30.0432 107.925 29.683 107.133 28.8905C106.268 28.098 105.836 27.0893 105.836 25.8645C105.836 24.7118 106.196 23.7031 106.989 22.9106C107.781 22.1181 108.718 21.6859 109.943 21.6859C111.095 21.6859 112.032 22.1181 112.68 22.9106C113.401 23.7031 113.689 24.7118 113.689 25.8645V26.4409H108.069C108.213 26.9452 108.502 27.3775 108.934 27.6657C109.438 27.9539 110.015 28.098 110.735 28.098C111.6 28.098 112.464 27.8818 113.257 27.3775V29.1786C112.536 29.755 111.528 30.0432 110.231 30.0432ZM108.069 25.072H111.528C111.528 24.6397 111.311 24.2075 111.023 23.9193C110.735 23.6311 110.303 23.487 109.871 23.487C109.366 23.487 108.934 23.6311 108.646 23.9193C108.286 24.2075 108.141 24.5677 108.069 25.072Z" fill="#363636"/>
<path d="M117.651 29.8271H115.418V21.902H117.651V24.8559H120.893V21.902H123.127V29.8271H120.893V26.7291H117.651V29.8271Z" fill="#363636"/>
<path d="M129.25 30.0432C128.025 30.0432 126.945 29.683 126.152 28.8905C125.288 28.098 124.855 27.0893 124.855 25.8645C124.855 24.7118 125.216 23.7031 126.008 22.9106C126.801 22.1181 127.737 21.6859 128.962 21.6859C130.115 21.6859 131.051 22.1181 131.7 22.9106C132.42 23.7031 132.708 24.7118 132.708 25.8645V26.4409H127.017C127.161 26.9452 127.449 27.3775 127.881 27.6657C128.386 27.9539 128.962 28.098 129.683 28.098C130.547 28.098 131.412 27.8818 132.204 27.3775V29.1786C131.556 29.755 130.547 30.0432 129.25 30.0432ZM127.089 25.072H130.547C130.547 24.6397 130.331 24.2075 130.043 23.9193C129.755 23.6311 129.322 23.487 128.89 23.487C128.386 23.487 127.953 23.6311 127.665 23.9193C127.305 24.2075 127.089 24.5677 127.089 25.072Z" fill="#363636"/>
<path d="M139.266 21.6859C140.346 21.6859 141.211 22.1181 141.931 22.9106C142.652 23.7031 143.012 24.7118 143.012 25.8645C143.012 27.0173 142.652 28.0259 141.931 28.8184C141.211 29.6109 140.346 29.9712 139.266 29.9712C138.185 29.9712 137.32 29.6109 136.672 28.8184V32.925H134.438V21.902H136.672V22.8386C137.248 22.1181 138.113 21.6859 139.266 21.6859ZM138.617 23.6311C138.185 23.6311 137.825 23.7752 137.464 23.9913C137.104 24.2075 136.816 24.4957 136.672 24.8559V26.9452C136.888 27.3054 137.104 27.5936 137.464 27.8098C137.825 28.0259 138.185 28.098 138.617 28.098C139.266 28.098 139.77 27.8818 140.13 27.4495C140.562 27.0173 140.706 26.5129 140.706 25.8645C140.706 25.2161 140.49 24.7118 140.13 24.2795C139.77 23.8472 139.266 23.6311 138.617 23.6311Z" fill="#363636"/>
<path d="M146.902 29.8271H144.669V21.902H146.902V24.8559H150.144V21.902H152.378V29.8271H150.144V26.7291H146.902V29.8271Z" fill="#363636"/>
<path d="M164.842 29.8271H162.608V21.902H164.842V29.8271ZM158.502 29.8271H154.539V21.902H156.772V24.2075H158.358C159.366 24.2075 160.159 24.4957 160.735 25C161.311 25.5043 161.6 26.1528 161.6 27.0173C161.6 27.8098 161.311 28.4582 160.807 29.0346C160.303 29.5389 159.51 29.8271 158.502 29.8271ZM156.772 25.8646V28.098H158.069C158.502 28.098 158.862 28.026 159.078 27.8098C159.294 27.5937 159.438 27.3775 159.438 27.0173C159.438 26.6571 159.294 26.3689 159.078 26.2248C158.862 26.0087 158.502 25.9366 158.069 25.9366H156.772V25.8646Z" fill="#363636"/>
<path d="M170.894 30.0432C169.669 30.0432 168.588 29.683 167.796 28.8905C167.003 28.098 166.499 27.0893 166.499 25.8645C166.499 24.7118 166.859 23.7031 167.652 22.9106C168.444 22.1181 169.381 21.6859 170.606 21.6859C171.758 21.6859 172.695 22.1181 173.343 22.9106C174.064 23.7031 174.352 24.7118 174.352 25.8645V26.4409H168.66C168.805 26.9452 169.093 27.3775 169.525 27.6657C170.029 27.9539 170.606 28.098 171.326 28.098C172.191 28.098 173.055 27.8818 173.848 27.3775V29.1786C173.199 29.755 172.191 30.0432 170.894 30.0432ZM168.732 25.072H172.191C172.191 24.6397 171.975 24.2075 171.686 23.9193C171.398 23.6311 170.966 23.487 170.534 23.487C170.029 23.487 169.597 23.6311 169.309 23.9193C168.949 24.2075 168.732 24.5677 168.732 25.072Z" fill="#363636"/>
<path d="M85.303 48.5591H73.8477V40.634H76.0811V46.6859H78.4586V40.634H80.62V46.6859H83.0696V40.634H85.2309V48.5591H85.303Z" fill="#363636"/>
<path d="M89.6973 48.5591H87.4639V40.634H89.6973V43.5159L92.435 40.634H95.1728L91.7146 44.2363L95.6771 48.5591H92.7953L89.6973 45.1729V48.5591Z" fill="#363636"/>
<path d="M98.0549 44.5965C98.0549 45.2449 98.2711 45.7493 98.7033 46.1815C99.1356 46.6138 99.6399 46.83 100.288 46.83C100.937 46.83 101.441 46.6138 101.873 46.1815C102.306 45.7493 102.522 45.2449 102.522 44.5965C102.522 43.9481 102.306 43.4438 101.873 43.0115C101.441 42.5792 100.937 42.3631 100.288 42.3631C99.6399 42.3631 99.1356 42.5792 98.7033 43.0115C98.2711 43.4438 98.0549 43.9481 98.0549 44.5965ZM95.8936 44.5965C95.8936 43.4438 96.3258 42.4351 97.1183 41.6426C97.9108 40.8501 98.9915 40.4178 100.288 40.4178C101.585 40.4178 102.594 40.8501 103.458 41.6426C104.251 42.4351 104.683 43.4438 104.683 44.5965C104.683 45.7493 104.251 46.7579 103.458 47.5504C102.666 48.3429 101.585 48.7752 100.288 48.7752C98.9915 48.7752 97.9829 48.3429 97.1183 47.5504C96.2538 46.7579 95.8936 45.7493 95.8936 44.5965Z" fill="#363636"/>
<path d="M111.671 42.5072H109.222V43.5879C109.15 44.7406 109.077 45.6772 108.861 46.3977C108.645 47.1182 108.357 47.6225 107.925 48.0548C107.492 48.415 106.916 48.6311 106.196 48.6311C105.835 48.6311 105.547 48.5591 105.331 48.487V46.6859C105.475 46.7579 105.619 46.7579 105.763 46.7579C106.268 46.7579 106.628 46.3977 106.772 45.7493C106.916 45.1729 106.988 44.2363 107.06 43.0115L107.132 40.7061H113.977V48.6311H111.671V42.5072Z" fill="#363636"/>
<path d="M126.369 48.5591H124.136V40.634H126.369V48.5591ZM120.029 48.5591H116.066V40.634H118.3V42.9395H119.885C120.893 42.9395 121.686 43.2277 122.262 43.732C122.839 44.2363 123.127 44.8848 123.127 45.7493C123.127 46.5418 122.839 47.1902 122.334 47.7666C121.83 48.2709 121.038 48.5591 120.029 48.5591ZM118.3 44.5966V46.83H119.597C120.029 46.83 120.389 46.758 120.605 46.5418C120.821 46.3257 120.966 46.1095 120.966 45.7493C120.966 45.3891 120.821 45.1009 120.605 44.9568C120.389 44.7407 120.029 44.6686 119.597 44.6686H118.3V44.5966Z" fill="#363636"/>
<path d="M14.0487 50C15.8393 50 17.2908 48.5485 17.2908 46.7579C17.2908 44.9674 15.8393 43.5159 14.0487 43.5159C12.2582 43.5159 10.8066 44.9674 10.8066 46.7579C10.8066 48.5485 12.2582 50 14.0487 50Z" fill="#4547BB" fill-opacity="0.4"/>
<path d="M24.8554 6.77236C26.6459 6.77236 28.0974 5.32083 28.0974 3.53028C28.0974 1.73973 26.6459 0.288208 24.8554 0.288208C23.0648 0.288208 21.6133 1.73973 21.6133 3.53028C21.6133 5.32083 23.0648 6.77236 24.8554 6.77236Z" fill="#4547BB" fill-opacity="0.4"/>
<path d="M24.8554 17.5793C26.6459 17.5793 28.0974 16.1278 28.0974 14.3372C28.0974 12.5467 26.6459 11.0952 24.8554 11.0952C23.0648 11.0952 21.6133 12.5467 21.6133 14.3372C21.6133 16.1278 23.0648 17.5793 24.8554 17.5793Z" fill="#4547BB" fill-opacity="0.4"/>
<path d="M24.8554 39.1931C26.6459 39.1931 28.0974 37.7416 28.0974 35.9511C28.0974 34.1605 26.6459 32.709 24.8554 32.709C23.0648 32.709 21.6133 34.1605 21.6133 35.9511C21.6133 37.7416 23.0648 39.1931 24.8554 39.1931Z" fill="#4547BB" fill-opacity="0.4"/>
<path d="M24.8554 50C26.6459 50 28.0974 48.5485 28.0974 46.7579C28.0974 44.9674 26.6459 43.5159 24.8554 43.5159C23.0648 43.5159 21.6133 44.9674 21.6133 46.7579C21.6133 48.5485 23.0648 50 24.8554 50Z" fill="#4547BB" fill-opacity="0.4"/>
<path d="M35.663 6.77236C37.4535 6.77236 38.905 5.32083 38.905 3.53028C38.905 1.73973 37.4535 0.288208 35.663 0.288208C33.8724 0.288208 32.4209 1.73973 32.4209 3.53028C32.4209 5.32083 33.8724 6.77236 35.663 6.77236Z" fill="#4547BB" fill-opacity="0.4"/>
<path d="M3.24207 6.77236C5.03262 6.77236 6.48415 5.32083 6.48415 3.53028C6.48415 1.73973 5.03262 0.288208 3.24207 0.288208C1.45153 0.288208 0 1.73973 0 3.53028C0 5.32083 1.45153 6.77236 3.24207 6.77236Z" fill="#4547BB"/>
<path d="M3.24207 17.5793C5.03262 17.5793 6.48415 16.1278 6.48415 14.3372C6.48415 12.5467 5.03262 11.0952 3.24207 11.0952C1.45153 11.0952 0 12.5467 0 14.3372C0 16.1278 1.45153 17.5793 3.24207 17.5793Z" fill="#4547BB"/>
<path d="M3.24207 28.3862C5.03262 28.3862 6.48415 26.9347 6.48415 25.1441C6.48415 23.3536 5.03262 21.902 3.24207 21.902C1.45153 21.902 0 23.3536 0 25.1441C0 26.9347 1.45153 28.3862 3.24207 28.3862Z" fill="#4547BB"/>
<path d="M3.24207 39.1931C5.03262 39.1931 6.48415 37.7416 6.48415 35.9511C6.48415 34.1605 5.03262 32.709 3.24207 32.709C1.45153 32.709 0 34.1605 0 35.9511C0 37.7416 1.45153 39.1931 3.24207 39.1931Z" fill="#4547BB"/>
<path d="M3.24207 50C5.03262 50 6.48415 48.5485 6.48415 46.7579C6.48415 44.9674 5.03262 43.5159 3.24207 43.5159C1.45153 43.5159 0 44.9674 0 46.7579C0 48.5485 1.45153 50 3.24207 50Z" fill="#4547BB"/>
<path d="M14.0487 6.77236C15.8393 6.77236 17.2908 5.32083 17.2908 3.53028C17.2908 1.73973 15.8393 0.288208 14.0487 0.288208C12.2582 0.288208 10.8066 1.73973 10.8066 3.53028C10.8066 5.32083 12.2582 6.77236 14.0487 6.77236Z" fill="#4547BB"/>
<path d="M14.0487 17.5793C15.8393 17.5793 17.2908 16.1278 17.2908 14.3372C17.2908 12.5467 15.8393 11.0952 14.0487 11.0952C12.2582 11.0952 10.8066 12.5467 10.8066 14.3372C10.8066 16.1278 12.2582 17.5793 14.0487 17.5793Z" fill="#4547BB"/>
<path d="M14.0487 28.3862C15.8393 28.3862 17.2908 26.9347 17.2908 25.1441C17.2908 23.3536 15.8393 21.902 14.0487 21.902C12.2582 21.902 10.8066 23.3536 10.8066 25.1441C10.8066 26.9347 12.2582 28.3862 14.0487 28.3862Z" fill="#4547BB"/>
<path d="M14.0487 39.1931C15.8393 39.1931 17.2908 37.7416 17.2908 35.9511C17.2908 34.1605 15.8393 32.709 14.0487 32.709C12.2582 32.709 10.8066 34.1605 10.8066 35.9511C10.8066 37.7416 12.2582 39.1931 14.0487 39.1931Z" fill="#4547BB"/>
<path d="M24.8563 28.3862C26.6469 28.3862 28.0984 26.9347 28.0984 25.1441C28.0984 23.3536 26.6469 21.902 24.8563 21.902C23.0658 21.902 21.6143 23.3536 21.6143 25.1441C21.6143 26.9347 23.0658 28.3862 24.8563 28.3862Z" fill="#4547BB"/>
<path d="M35.663 17.5793C37.4535 17.5793 38.905 16.1278 38.905 14.3372C38.905 12.5467 37.4535 11.0952 35.663 11.0952C33.8724 11.0952 32.4209 12.5467 32.4209 14.3372C32.4209 16.1278 33.8724 17.5793 35.663 17.5793Z" fill="#4547BB"/>
<path d="M35.663 28.3862C37.4535 28.3862 38.905 26.9347 38.905 25.1441C38.905 23.3536 37.4535 21.902 35.663 21.902C33.8724 21.902 32.4209 23.3536 32.4209 25.1441C32.4209 26.9347 33.8724 28.3862 35.663 28.3862Z" fill="#4547BB"/>
<path d="M35.663 39.1931C37.4535 39.1931 38.905 37.7416 38.905 35.9511C38.905 34.1605 37.4535 32.709 35.663 32.709C33.8724 32.709 32.4209 34.1605 32.4209 35.9511C32.4209 37.7416 33.8724 39.1931 35.663 39.1931Z" fill="#4547BB"/>
<path d="M35.663 50C37.4535 50 38.905 48.5485 38.905 46.7579C38.905 44.9674 37.4535 43.5159 35.663 43.5159C33.8724 43.5159 32.4209 44.9674 32.4209 46.7579C32.4209 48.5485 33.8724 50 35.663 50Z" fill="#4547BB"/>
<path d="M46.4696 6.77236C48.2602 6.77236 49.7117 5.32083 49.7117 3.53028C49.7117 1.73973 48.2602 0.288208 46.4696 0.288208C44.6791 0.288208 43.2275 1.73973 43.2275 3.53028C43.2275 5.32083 44.6791 6.77236 46.4696 6.77236Z" fill="#4547BB"/>
<path d="M46.4696 17.5793C48.2602 17.5793 49.7117 16.1278 49.7117 14.3372C49.7117 12.5467 48.2602 11.0952 46.4696 11.0952C44.6791 11.0952 43.2275 12.5467 43.2275 14.3372C43.2275 16.1278 44.6791 17.5793 46.4696 17.5793Z" fill="#4547BB"/>
<path d="M46.4696 28.3862C48.2602 28.3862 49.7117 26.9347 49.7117 25.1441C49.7117 23.3536 48.2602 21.902 46.4696 21.902C44.6791 21.902 43.2275 23.3536 43.2275 25.1441C43.2275 26.9347 44.6791 28.3862 46.4696 28.3862Z" fill="#4547BB"/>
<path d="M46.4696 39.1931C48.2602 39.1931 49.7117 37.7416 49.7117 35.9511C49.7117 34.1605 48.2602 32.709 46.4696 32.709C44.6791 32.709 43.2275 34.1605 43.2275 35.9511C43.2275 37.7416 44.6791 39.1931 46.4696 39.1931Z" fill="#4547BB"/>
<path d="M46.4696 50C48.2602 50 49.7117 48.5485 49.7117 46.7579C49.7117 44.9674 48.2602 43.5159 46.4696 43.5159C44.6791 43.5159 43.2275 44.9674 43.2275 46.7579C43.2275 48.5485 44.6791 50 46.4696 50Z" fill="#4547BB"/>
</g>
<defs>
<clipPath id="clip0_4961_114783">
<rect width="174.352" height="50" fill="white"/>
</clipPath>
</defs>
</svg>
